<?xml version="1.0" encoding="UTF-8"?>
<svg id="_レイヤー_2" data-name="レイヤー 2" xmlns="http://www.w3.org/2000/svg" xmlns:xlink="http://www.w3.org/1999/xlink" viewBox="0 0 1024 1024">
  <defs>
    <style>
      .cls-1 {
        fill: #7db28b;
      }

      .cls-2 {
        fill: #f99;
      }

      .cls-3 {
        fill: #ccffd9;
      }
    </style>
    <symbol id="Icon" viewBox="0 0 1024 1024">
      <g>
        <path id="App_Icon_Placeholder" data-name="App Icon Placeholder" class="cls-3" d="M356.99,0h310c102.81,0,154.19,0,209.53,17.49,60.42,21.99,108,69.58,129.98,129.99,17.5,55.34,17.5,106.73,17.5,209.53v309.98c0,102.8,0,154.19-17.5,209.53-21.98,60.42-69.57,108-129.98,129.98-55.33,17.5-106.72,17.5-209.53,17.5h-310c-102.79,0-154.18,0-209.51-17.5-60.42-21.98-108-69.57-129.98-129.98C0,821.18,0,769.79,0,666.99v-309.98c0-102.79,0-154.18,17.5-209.53C39.48,87.07,87.07,39.48,147.48,17.49,202.82,0,254.2,0,356.99,0h0"/>
        <rect class="cls-1" x="130" y="189" width="613" height="456" rx="75.47" ry="75.47"/>
        <rect class="cls-2" x="330" y="387" width="613" height="456" rx="75.47" ry="75.47"/>
      </g>
    </symbol>
  </defs>
  <g id="Background">
    <use width="1024" height="1024" xlink:href="#Icon"/>
  </g>
</svg>